<svg xmlns="http://www.w3.org/2000/svg" viewBox="0 0 360 180" role="img" aria-label="Aadhaar card illustration">
  <defs>
    <linearGradient id="aadBg" x1="0" y1="0" x2="1" y2="1">
      <stop offset="0" stop-color="#f7d8b4"/>
      <stop offset="1" stop-color="#eec08d"/>
    </linearGradient>
  </defs>
  <rect width="360" height="180" rx="16" fill="url(#aadBg)"/>
  <rect x="20" y="28" width="320" height="118" rx="12" fill="#f8f2ea" stroke="#e8c89f"/>
  <rect x="34" y="44" width="74" height="74" rx="10" fill="#ffe9d6" stroke="#efcfac"/>
  <circle cx="71" cy="74" r="16" fill="#313f58"/>
  <path d="M49 106c6-14 16-20 22-20s16 6 22 20" fill="#f09949"/>
  <rect x="122" y="52" width="152" height="8" rx="4" fill="#e95f55"/>
  <rect x="122" y="69" width="176" height="8" rx="4" fill="#57a468"/>
  <rect x="122" y="89" width="128" height="7" rx="4" fill="#9db3c8"/>
  <rect x="122" y="104" width="120" height="7" rx="4" fill="#9db3c8"/>
  <rect x="284" y="82" width="40" height="40" rx="6" fill="#dbe4ed" stroke="#c0ccd9"/>
  <rect x="24" y="153" width="312" height="10" rx="5" fill="#f4eadf"/>
</svg>
