<svg xmlns="http://www.w3.org/2000/svg" viewBox="0 0 360 180" role="img" aria-label="Voter card illustration">
  <defs>
    <linearGradient id="vBg" x1="0" y1="0" x2="1" y2="1">
      <stop offset="0" stop-color="#dbe9f7"/>
      <stop offset="1" stop-color="#bfd4eb"/>
    </linearGradient>
    <linearGradient id="vCard" x1="0" y1="0" x2="1" y2="1">
      <stop offset="0" stop-color="#f7fbff"/>
      <stop offset="1" stop-color="#e8f1fb"/>
    </linearGradient>
  </defs>
  <rect width="360" height="180" rx="16" fill="url(#vBg)"/>
  <rect x="18" y="24" width="324" height="128" rx="12" fill="url(#vCard)" stroke="#c6d8ec"/>

  <rect x="34" y="39" width="292" height="10" rx="5" fill="#f08a2f"/>
  <rect x="34" y="49" width="292" height="9" rx="4" fill="#ffffff"/>
  <rect x="34" y="58" width="292" height="10" rx="5" fill="#4ca167"/>
  <circle cx="180" cy="53" r="6" fill="#2f63a0"/>

  <rect x="40" y="78" width="82" height="54" rx="8" fill="#dbe7f4" stroke="#c3d3e6"/>
  <circle cx="81" cy="96" r="13" fill="#5f7fa7"/>
  <path d="M62 124c5-11 12-16 19-16 8 0 15 5 20 16" fill="#6e8eb4"/>

  <text x="136" y="88" fill="#2f5f95" font-size="12" font-family="Arial" font-weight="700">ELECTOR PHOTO ID CARD</text>
  <rect x="136" y="96" width="156" height="6" rx="3" fill="#4f77a5"/>
  <rect x="136" y="109" width="142" height="6" rx="3" fill="#6d91b8"/>
  <rect x="136" y="122" width="124" height="6" rx="3" fill="#9ab2cb"/>

  <path d="M299 89l10 20h-7v22h-14v-22h-7z" fill="#2e6aae"/>
  <rect x="286" y="74" width="18" height="6" rx="3" fill="#7f97b2"/>
  <rect x="24" y="154" width="312" height="10" rx="5" fill="#dfeaf6"/>
</svg>
